<?xml version="1.0" encoding="UTF-8"?>
<svg xmlns="http://www.w3.org/2000/svg" xmlns:xlink="http://www.w3.org/1999/xlink" viewBox="0 0 48 48" width="48px" height="48px">
<defs>
<linearGradient id="linear0" gradientUnits="userSpaceOnUse" x1="9.858" y1="9.858" x2="38.141998" y2="38.141998" gradientTransform="matrix(0.999999,0,0,0.999999,0,0)">
<stop offset="0" style="stop-color:rgb(61.56863%,100%,80.784315%);stop-opacity:1;"/>
<stop offset="1" style="stop-color:rgb(31.37255%,81.960785%,55.29412%);stop-opacity:1;"/>
</linearGradient>
<linearGradient id="linear1" gradientUnits="userSpaceOnUse" x1="13" y1="24.792999" x2="36" y2="24.792999" gradientTransform="matrix(0.999999,0,0,0.999999,0,0)">
<stop offset="0.824" style="stop-color:rgb(7.450981%,36.470589%,21.176471%);stop-opacity:1;"/>
<stop offset="0.931" style="stop-color:rgb(7.058824%,34.901962%,20%);stop-opacity:1;"/>
<stop offset="1" style="stop-color:rgb(6.666667%,32.156864%,18.431373%);stop-opacity:1;"/>
</linearGradient>
</defs>
<g id="surface131027198">
<path style=" stroke:none;fill-rule:nonzero;fill:url(#linear0);" d="M 44 24 C 44 35.046875 35.046875 44 24 44 C 12.953125 44 4 35.046875 4 24 C 4 12.953125 12.953125 4 24 4 C 35.046875 4 44 12.953125 44 24 Z M 44 24 "/>
<path style=" stroke:none;fill-rule:nonzero;fill:url(#linear1);" d="M 21.292969 32.707031 L 13.292969 24.707031 C 12.902344 24.316406 12.902344 23.683594 13.292969 23.292969 L 14.707031 21.878906 C 15.097656 21.488281 15.730469 21.488281 16.121094 21.878906 L 22 27.757812 L 32.878906 16.878906 C 33.269531 16.488281 33.902344 16.488281 34.292969 16.878906 L 35.707031 18.292969 C 36.097656 18.683594 36.097656 19.316406 35.707031 19.707031 L 22.707031 32.707031 C 22.316406 33.097656 21.683594 33.097656 21.292969 32.707031 Z M 21.292969 32.707031 "/>
</g>
</svg>
